<?xml version="1.0" encoding="UTF-8" standalone="no"?><!DOCTYPE svg PUBLIC "-//W3C//DTD SVG 1.1//EN" "http://www.w3.org/Graphics/SVG/1.1/DTD/svg11.dtd"><!-- Generated by graphviz version 2.40.1 (20161225.0304)
 --><!-- Title: G Pages: 1 --><svg xmlns="http://www.w3.org/2000/svg" xmlns:xlink="http://www.w3.org/1999/xlink" width="327pt" height="404pt" viewBox="0.00 0.00 326.93 404.00">
<g id="graph0" class="graph" transform="scale(1 1) rotate(0) translate(4 400)">
<title>G</title>
<polygon fill="#ffffff" stroke="transparent" points="-4,4 -4,-400 322.9333,-400 322.9333,4 -4,4"/>
<!-- add3 -->
<g id="node1" class="node">
<title>add3</title>
<ellipse fill="none" stroke="#000000" cx="177.9333" cy="-378" rx="29.6185" ry="18"/>
<text text-anchor="middle" x="177.9333" y="-373.8" font-family="Times,serif" font-size="14.00" fill="#000000">add3</text>
</g>
<!-- params -->
<g id="node2" class="node">
<title>params</title>
<ellipse fill="none" stroke="#000000" cx="117.9333" cy="-306" rx="38.842" ry="18"/>
<text text-anchor="middle" x="117.9333" y="-301.8" font-family="Times,serif" font-size="14.00" fill="#000000">params</text>
</g>
<!-- add3&#45;&gt;params -->
<g id="edge1" class="edge">
<title>add3-&gt;params</title>
<path fill="none" stroke="#000000" d="M164.3183,-361.6621C156.7339,-352.5608 147.1341,-341.041 138.6379,-330.8456"/>
<polygon fill="#000000" stroke="#000000" points="141.211,-328.4661 132.1204,-323.0245 135.8335,-332.9474 141.211,-328.4661"/>
</g>
<!-- block -->
<g id="node3" class="node">
<title>block</title>
<ellipse fill="none" stroke="#000000" cx="238.9333" cy="-306" rx="32.4846" ry="18"/>
<text text-anchor="middle" x="238.9333" y="-301.8" font-family="Times,serif" font-size="14.00" fill="#000000">block</text>
</g>
<!-- add3&#45;&gt;block -->
<g id="edge2" class="edge">
<title>add3-&gt;block</title>
<path fill="none" stroke="#000000" d="M191.7751,-361.6621C199.5414,-352.4953 209.3863,-340.8751 218.0698,-330.6257"/>
<polygon fill="#000000" stroke="#000000" points="220.9291,-332.6652 224.7229,-322.7729 215.5882,-328.1403 220.9291,-332.6652"/>
</g>
<!-- int a -->
<g id="node6" class="node">
<title>int a</title>
<ellipse fill="none" stroke="#000000" cx="27.9333" cy="-234" rx="27.8667" ry="18"/>
<text text-anchor="middle" x="27.9333" y="-229.8" font-family="Times,serif" font-size="14.00" fill="#000000">int a</text>
</g>
<!-- params&#45;&gt;int a -->
<g id="edge3" class="edge">
<title>params-&gt;int a</title>
<path fill="none" stroke="#000000" d="M98.4046,-290.3771C85.2667,-279.8667 67.8097,-265.9012 53.5577,-254.4996"/>
<polygon fill="#000000" stroke="#000000" points="55.5887,-251.6422 45.5936,-248.1282 51.2158,-257.1083 55.5887,-251.6422"/>
</g>
<!-- int b -->
<g id="node7" class="node">
<title>int b</title>
<ellipse fill="none" stroke="#000000" cx="101.9333" cy="-234" rx="28.4501" ry="18"/>
<text text-anchor="middle" x="101.9333" y="-229.8" font-family="Times,serif" font-size="14.00" fill="#000000">int b</text>
</g>
<!-- params&#45;&gt;int b -->
<g id="edge4" class="edge">
<title>params-&gt;int b</title>
<path fill="none" stroke="#000000" d="M113.8958,-287.8314C112.1392,-279.9266 110.0415,-270.4872 108.0969,-261.7365"/>
<polygon fill="#000000" stroke="#000000" points="111.5001,-260.916 105.914,-251.9134 104.6667,-262.4346 111.5001,-260.916"/>
</g>
<!-- int c -->
<g id="node8" class="node">
<title>int c</title>
<ellipse fill="none" stroke="#000000" cx="175.9333" cy="-234" rx="27.8667" ry="18"/>
<text text-anchor="middle" x="175.9333" y="-229.8" font-family="Times,serif" font-size="14.00" fill="#000000">int c</text>
</g>
<!-- params&#45;&gt;int c -->
<g id="edge5" class="edge">
<title>params-&gt;int c</title>
<path fill="none" stroke="#000000" d="M131.6785,-288.937C139.0063,-279.8403 148.1508,-268.4886 156.222,-258.4691"/>
<polygon fill="#000000" stroke="#000000" points="159.1383,-260.4281 162.686,-250.4449 153.687,-256.0368 159.1383,-260.4281"/>
</g>
<!-- return -->
<g id="node9" class="node">
<title>return</title>
<ellipse fill="none" stroke="#000000" cx="255.9333" cy="-234" rx="34.1871" ry="18"/>
<text text-anchor="middle" x="255.9333" y="-229.8" font-family="Times,serif" font-size="14.00" fill="#000000">return</text>
</g>
<!-- block&#45;&gt;return -->
<g id="edge6" class="edge">
<title>block-&gt;return</title>
<path fill="none" stroke="#000000" d="M243.2231,-287.8314C245.0895,-279.9266 247.3182,-270.4872 249.3844,-261.7365"/>
<polygon fill="#000000" stroke="#000000" points="252.812,-262.4501 251.7037,-251.9134 245.9994,-260.8415 252.812,-262.4501"/>
</g>
<!-- add1 -->
<g id="node4" class="node">
<title>add1</title>
<ellipse fill="none" stroke="#000000" cx="255.9333" cy="-162" rx="27" ry="18"/>
<text text-anchor="middle" x="255.9333" y="-157.8" font-family="Times,serif" font-size="14.00" fill="#000000">add</text>
</g>
<!-- add2 -->
<g id="node5" class="node">
<title>add2</title>
<ellipse fill="none" stroke="#000000" cx="219.9333" cy="-90" rx="27" ry="18"/>
<text text-anchor="middle" x="219.9333" y="-85.8" font-family="Times,serif" font-size="14.00" fill="#000000">add</text>
</g>
<!-- add1&#45;&gt;add2 -->
<g id="edge9" class="edge">
<title>add1-&gt;add2</title>
<path fill="none" stroke="#000000" d="M247.2187,-144.5708C242.9736,-136.0807 237.7797,-125.6929 233.067,-116.2674"/>
<polygon fill="#000000" stroke="#000000" points="236.1703,-114.6477 228.5676,-107.2687 229.9093,-117.7782 236.1703,-114.6477"/>
</g>
<!-- a -->
<g id="node10" class="node">
<title>a</title>
<ellipse fill="none" stroke="#000000" cx="291.9333" cy="-90" rx="27" ry="18"/>
<text text-anchor="middle" x="291.9333" y="-85.8" font-family="Times,serif" font-size="14.00" fill="#000000">a</text>
</g>
<!-- add1&#45;&gt;a -->
<g id="edge8" class="edge">
<title>add1-&gt;a</title>
<path fill="none" stroke="#000000" d="M264.6479,-144.5708C268.8929,-136.0807 274.0868,-125.6929 278.7996,-116.2674"/>
<polygon fill="#000000" stroke="#000000" points="281.9572,-117.7782 283.2989,-107.2687 275.6962,-114.6477 281.9572,-117.7782"/>
</g>
<!-- b -->
<g id="node11" class="node">
<title>b</title>
<ellipse fill="none" stroke="#000000" cx="183.9333" cy="-18" rx="27" ry="18"/>
<text text-anchor="middle" x="183.9333" y="-13.8" font-family="Times,serif" font-size="14.00" fill="#000000">b</text>
</g>
<!-- add2&#45;&gt;b -->
<g id="edge10" class="edge">
<title>add2-&gt;b</title>
<path fill="none" stroke="#000000" d="M211.2187,-72.5708C206.9736,-64.0807 201.7797,-53.6929 197.067,-44.2674"/>
<polygon fill="#000000" stroke="#000000" points="200.1703,-42.6477 192.5676,-35.2687 193.9093,-45.7782 200.1703,-42.6477"/>
</g>
<!-- c -->
<g id="node12" class="node">
<title>c</title>
<ellipse fill="none" stroke="#000000" cx="255.9333" cy="-18" rx="27" ry="18"/>
<text text-anchor="middle" x="255.9333" y="-13.8" font-family="Times,serif" font-size="14.00" fill="#000000">c</text>
</g>
<!-- add2&#45;&gt;c -->
<g id="edge11" class="edge">
<title>add2-&gt;c</title>
<path fill="none" stroke="#000000" d="M228.6479,-72.5708C232.8929,-64.0807 238.0868,-53.6929 242.7996,-44.2674"/>
<polygon fill="#000000" stroke="#000000" points="245.9572,-45.7782 247.2989,-35.2687 239.6962,-42.6477 245.9572,-45.7782"/>
</g>
<!-- return&#45;&gt;add1 -->
<g id="edge7" class="edge">
<title>return-&gt;add1</title>
<path fill="none" stroke="#000000" d="M255.9333,-215.8314C255.9333,-208.131 255.9333,-198.9743 255.9333,-190.4166"/>
<polygon fill="#000000" stroke="#000000" points="259.4334,-190.4132 255.9333,-180.4133 252.4334,-190.4133 259.4334,-190.4132"/>
</g>
</g>
</svg>